<?xml version="1.0" standalone="no"?>
<!DOCTYPE svg PUBLIC "-//W3C//DTD SVG 20010904//EN"
 "http://www.w3.org/TR/2001/REC-SVG-20010904/DTD/svg10.dtd">
<svg version="1.0" xmlns="http://www.w3.org/2000/svg"
 width="300.000000pt" height="187.000000pt" viewBox="0 0 300.000000 187.000000"
 preserveAspectRatio="xMidYMid meet">
<g transform="translate(0.000000,187.000000) scale(0.100000,-0.100000)"
fill="#000000" stroke="none">
<path d="M1421 1499 c-67 -11 -172 -69 -205 -112 -39 -50 -57 -104 -57 -163 0
-45 -3 -54 -18 -54 -25 0 -51 -32 -51 -62 0 -27 27 -58 52 -58 9 0 22 -18 32
-43 21 -56 97 -132 153 -153 37 -14 42 -20 37 -38 -12 -34 -5 -80 13 -93 22
-17 42 -16 77 2 37 19 75 19 116 -1 64 -32 109 13 89 88 -7 25 -3 29 37 48 53
26 131 110 142 154 5 19 16 32 28 35 30 5 54 32 54 61 0 29 -27 60 -53 60 -12
0 -16 11 -16 55 0 133 -115 249 -271 274 -73 12 -84 12 -159 0z m67 -39 c28
-20 107 -42 117 -32 13 13 3 22 -32 28 -53 9 -76 23 -41 24 52 0 157 -42 202
-81 69 -61 86 -108 86 -239 0 -91 -4 -118 -21 -155 -26 -55 -75 -100 -149
-134 -46 -22 -69 -26 -145 -26 -76 0 -99 4 -145 26 -72 34 -124 79 -149 133
-17 35 -21 62 -21 154 0 72 5 124 13 145 31 73 103 133 193 161 63 19 60 19
92 -4z m-332 -387 c-9 -10 -36 19 -36 38 0 10 8 22 18 28 15 8 17 5 20 -26 2
-19 1 -37 -2 -40z m734 39 c0 -19 -18 -42 -32 -42 -4 0 -8 18 -8 40 0 38 2 40
20 30 11 -6 20 -19 20 -28z m-442 -301 c18 -11 12 -51 -9 -64 -28 -17 -49 -1
-49 38 0 30 3 35 23 35 12 0 28 -4 35 -9z m182 -26 c0 -57 -60 -61 -68 -5 -4
26 12 40 46 40 19 0 22 -5 22 -35z m-106 8 c8 -21 -10 -41 -24 -27 -11 11 -3
44 10 44 4 0 11 -8 14 -17z"/>
<path d="M1347 1206 c-9 -22 19 -42 37 -26 19 15 10 40 -14 40 -10 0 -20 -6
-23 -14z"/>
<path d="M1617 1206 c-6 -15 11 -36 29 -36 14 0 27 28 18 41 -8 14 -41 11 -47
-5z"/>
<path d="M1406 1054 c-22 -8 -48 -12 -58 -8 -32 10 -19 -7 17 -22 43 -18 96
-18 120 0 15 11 22 11 44 0 34 -18 85 -18 121 1 34 17 40 30 11 20 -11 -3 -35
1 -55 9 -44 18 -148 18 -200 0z"/>
<path d="M370 620 c0 -5 7 -10 15 -10 19 0 28 -53 23 -145 -3 -72 -3 -75 19
-75 21 0 23 5 23 50 l0 49 48 -48 c50 -50 104 -73 125 -52 8 8 8 11 -2 11 -16
0 -131 109 -131 124 0 20 69 86 89 86 12 0 21 5 21 10 0 13 -26 13 -51 0 -10
-6 -37 -34 -59 -61 l-40 -51 0 55 c0 41 -4 56 -16 61 -25 9 -64 7 -64 -4z"/>
<path d="M650 601 c-52 -57 -52 -136 1 -187 25 -24 39 -29 79 -29 53 0 81 18
107 69 19 37 10 102 -21 140 -19 24 -32 30 -79 34 -54 4 -58 3 -87 -27z m117
-5 c23 -20 28 -32 29 -78 3 -73 -22 -118 -66 -118 -44 0 -69 45 -66 118 1 46
6 58 29 78 16 13 32 24 37 24 5 0 21 -11 37 -24z"/>
<path d="M860 620 c0 -5 7 -10 15 -10 18 0 17 3 15 -122 -1 -63 2 -98 9 -98 6
0 11 36 13 89 l3 89 74 -89 c40 -49 77 -89 82 -89 5 0 9 54 9 120 0 82 -4 120
-11 120 -8 0 -10 -26 -7 -86 l4 -85 -40 48 c-77 92 -113 123 -140 123 -14 0
-26 -4 -26 -10z"/>
<path d="M1178 613 c-49 -30 -67 -119 -36 -176 14 -26 68 -57 101 -57 113 0
159 168 65 234 -29 21 -96 20 -130 -1z m112 -19 c8 -8 16 -39 18 -76 3 -53 1
-67 -18 -90 -60 -77 -139 13 -110 123 17 63 68 83 110 43z"/>
<path d="M1380 621 c0 -5 7 -11 15 -15 12 -4 15 -26 15 -111 l0 -105 63 0 c96
0 128 25 113 86 -4 14 -16 26 -32 30 l-25 6 23 12 c17 9 23 20 23 46 0 31 -4
36 -35 47 -41 14 -160 17 -160 4z m138 -23 c7 -7 12 -21 12 -33 0 -29 -19 -45
-52 -45 -27 0 -28 2 -28 45 0 43 1 45 28 45 15 0 33 -5 40 -12z m15 -119 c18
-29 1 -66 -34 -73 -43 -8 -49 -2 -49 50 l0 45 36 -3 c21 -2 41 -10 47 -19z"/>
<path d="M1660 510 c-29 -66 -50 -123 -47 -126 3 -3 14 11 25 32 18 34 23 37
63 38 38 1 47 -3 64 -29 15 -21 30 -31 54 -33 32 -3 32 -3 14 15 -11 11 -39
65 -63 121 -24 56 -46 102 -50 102 -3 0 -30 -54 -60 -120z m74 -17 c7 -21 4
-23 -33 -23 l-41 0 22 45 c22 44 23 45 34 23 6 -13 15 -33 18 -45z"/>
<path d="M1840 620 c0 -5 7 -10 15 -10 12 0 15 -19 15 -110 l0 -110 25 0 c24
0 25 3 25 55 0 30 3 55 8 55 4 0 20 -23 35 -51 29 -50 66 -75 95 -64 11 4 9
10 -11 25 -14 11 -34 36 -46 55 l-21 36 25 9 c25 10 42 48 31 75 -3 9 -21 22
-41 30 -39 17 -155 20 -155 5z m138 -22 c29 -29 2 -88 -39 -88 -16 0 -19 7
-19 50 0 46 2 50 23 50 13 0 28 -5 35 -12z"/>
<path d="M2201 604 c-58 -48 -60 -143 -5 -195 37 -34 121 -35 158 0 14 13 23
28 20 33 -3 5 -16 -2 -29 -17 -30 -31 -84 -34 -109 -6 -46 51 -37 163 15 188
36 18 87 0 95 -33 8 -31 24 -31 24 0 0 58 -112 78 -169 30z"/>
<path d="M2448 610 c-62 -48 -63 -143 -2 -199 33 -30 41 -33 82 -28 57 6 97
46 107 105 8 51 -16 107 -56 127 -40 21 -101 19 -131 -5z m107 -13 c37 -31 45
-117 16 -164 -24 -39 -67 -45 -96 -13 -40 44 -27 171 19 190 30 13 32 12 61
-13z"/>
<path d="M2083 414 c-8 -21 13 -42 28 -27 13 13 5 43 -11 43 -6 0 -13 -7 -17
-16z"/>
</g>
</svg>
