<?xml version="1.0" standalone="no"?>
<!DOCTYPE svg PUBLIC "-//W3C//DTD SVG 20010904//EN"
 "http://www.w3.org/TR/2001/REC-SVG-20010904/DTD/svg10.dtd">
<svg version="1.0" xmlns="http://www.w3.org/2000/svg"
 width="177.000000pt" height="192.000000pt" viewBox="0 0 177.000000 192.000000"
 preserveAspectRatio="xMidYMid meet">

<g transform="translate(0.000000,192.000000) scale(0.100000,-0.100000)"
fill="#000000" stroke="none">
<path d="M760 1863 c-175 -29 -330 -109 -436 -226 -93 -102 -134 -209 -134
-353 l0 -81 -38 -11 c-21 -6 -51 -25 -67 -42 -25 -26 -30 -40 -30 -80 0 -40 5
-54 30 -80 17 -17 49 -36 72 -43 39 -10 44 -15 58 -58 42 -127 168 -259 313
-331 73 -35 89 -47 79 -57 -20 -20 -15 -151 6 -182 37 -55 125 -63 189 -18 46
33 148 34 197 2 67 -45 147 -41 184 9 28 38 35 135 13 179 -9 18 -15 33 -14
34 2 1 38 19 80 39 134 66 262 203 303 325 14 43 19 48 59 59 28 7 54 24 76
48 29 33 32 42 27 81 -6 54 -44 98 -99 115 l-38 11 0 81 c0 144 -41 251 -134
353 -138 152 -344 235 -573 232 -54 -1 -109 -4 -123 -6z m328 -74 c188 -50
333 -165 403 -322 23 -49 24 -66 27 -273 3 -203 2 -226 -18 -284 -56 -167
-215 -302 -420 -357 -89 -23 -291 -23 -379 1 -209 57 -365 188 -421 355 -20
60 -21 81 -18 286 l3 221 37 75 c77 155 246 276 438 311 56 11 57 10 109 -26
65 -44 143 -68 208 -64 40 3 48 6 48 23 0 17 -9 21 -58 27 -55 7 -147 40 -147
53 0 10 108 -5 188 -26z m-898 -719 c0 -77 -8 -85 -47 -48 -29 27 -29 65 -1
95 38 40 48 30 48 -47z m1447 48 c29 -27 29 -65 1 -95 -38 -40 -48 -30 -48 47
0 77 8 85 47 48z m-863 -649 c57 -45 18 -139 -58 -139 -25 0 -38 6 -46 19 -14
27 -13 114 2 129 19 19 73 14 102 -9z m360 5 c10 -25 7 -104 -4 -125 -17 -32
-73 -25 -104 12 -33 38 -33 73 -1 104 29 30 99 35 109 9z m-206 -50 c4 -38
-20 -63 -43 -44 -18 15 -20 51 -3 68 21 21 43 9 46 -24z"/>
<path d="M587 1282 c-22 -24 -21 -55 1 -75 24 -22 45 -21 65 1 21 23 22 56 1
76 -21 21 -47 20 -67 -2z"/>
<path d="M1126 1278 c-9 -12 -16 -28 -16 -35 0 -17 37 -53 54 -53 43 0 64 80
27 100 -30 16 -48 12 -65 -12z"/>
<path d="M720 969 c-47 -16 -100 -30 -117 -31 -45 -2 -41 -12 12 -38 64 -31
188 -32 239 -2 l36 22 42 -22 c72 -38 237 -23 276 25 10 11 6 14 -17 14 -15 0
-74 15 -129 33 -91 31 -105 33 -136 22 -24 -9 -41 -10 -60 -2 -39 14 -51 13
-146 -21z"/>
<path d="M293 166 c4 -10 7 -40 7 -67 0 -27 5 -49 10 -49 6 0 10 12 10 27 l0
27 28 -27 c15 -15 36 -27 45 -27 12 0 6 10 -21 35 l-37 35 33 30 c18 17 27 30
21 30 -6 0 -24 -14 -39 -30 l-29 -31 -3 27 c-2 15 -9 30 -17 32 -10 3 -12 0
-8 -12z"/>
<path d="M427 162 c-21 -23 -22 -76 -1 -96 22 -23 81 -21 94 3 16 30 12 76 -8
94 -24 22 -65 21 -85 -1z m75 -17 c17 -37 0 -80 -31 -80 -30 0 -46 40 -32 78
14 35 47 36 63 2z"/>
<path d="M560 113 c4 -64 5 -65 8 -19 l3 49 44 -49 44 -49 -1 65 c-1 53 -2 58
-7 26 l-6 -38 -38 41 c-21 23 -41 41 -45 41 -4 0 -5 -30 -2 -67z"/>
<path d="M706 164 c-25 -25 -30 -61 -12 -89 9 -14 23 -25 32 -25 14 0 14 2 0
16 -19 18 -21 75 -4 92 17 17 45 15 52 -4 12 -32 6 -83 -11 -93 -15 -9 -16
-10 -2 -11 23 0 49 33 49 63 0 54 -68 87 -104 51z"/>
<path d="M834 164 c3 -9 6 -38 6 -65 l0 -49 34 0 c38 0 68 23 60 45 -4 8 -10
15 -15 15 -5 0 -4 9 3 21 11 17 10 22 -6 35 -11 8 -35 14 -54 14 -27 0 -33 -3
-28 -16z m61 -19 c0 -11 -8 -21 -17 -23 -14 -3 -18 3 -18 23 0 20 4 26 18 23
9 -2 17 -12 17 -23z m10 -60 c0 -13 -8 -21 -22 -23 -19 -3 -23 1 -23 23 0 22
4 26 23 23 14 -2 22 -10 22 -23z"/>
<path d="M976 125 c-14 -32 -24 -63 -22 -69 2 -6 5 -3 5 7 1 9 6 17 11 17 6 0
10 8 10 18 0 9 5 24 10 32 7 12 11 8 16 -17 6 -32 36 -68 51 -62 4 2 -6 33
-23 69 l-31 64 -27 -59z"/>
<path d="M1084 164 c3 -9 6 -38 6 -65 0 -27 5 -49 10 -49 6 0 10 11 10 25 0
14 3 25 6 25 3 0 15 -11 26 -25 26 -33 45 -32 23 1 -15 23 -15 27 -1 43 9 10
16 20 16 24 0 17 -36 37 -67 37 -28 0 -34 -3 -29 -16z m61 -19 c0 -11 -8 -21
-17 -23 -14 -3 -18 3 -18 23 0 20 4 26 18 23 9 -2 17 -12 17 -23z"/>
<path d="M1261 161 c-37 -37 -19 -112 27 -111 15 1 15 2 0 11 -13 7 -18 23
-18 54 0 40 3 45 27 51 19 5 30 2 40 -12 14 -19 15 -18 11 1 -5 29 -60 33 -87
6z"/>
<path d="M1390 160 c-11 -11 -20 -30 -20 -43 0 -29 26 -67 46 -67 13 0 13 2
-1 16 -20 21 -16 83 7 97 39 25 68 -61 32 -97 -14 -14 -14 -16 0 -16 20 0 46
38 46 67 0 30 -34 63 -65 63 -14 0 -34 -9 -45 -20z"/>
<path d="M1200 60 c0 -5 5 -10 10 -10 6 0 10 5 10 10 0 6 -4 10 -10 10 -5 0
-10 -4 -10 -10z"/>
<path d="M1330 60 c-9 -6 -10 -10 -3 -10 6 0 15 5 18 10 8 12 4 12 -15 0z"/>
</g>
</svg>
