<?xml version="1.0" standalone="no"?>
<!DOCTYPE svg PUBLIC "-//W3C//DTD SVG 20010904//EN"
 "http://www.w3.org/TR/2001/REC-SVG-20010904/DTD/svg10.dtd">
<svg version="1.0" xmlns="http://www.w3.org/2000/svg"
 width="300.000000pt" height="285.000000pt" viewBox="0 0 300.000000 285.000000"
 preserveAspectRatio="xMidYMid meet">
<g transform="translate(0.000000,285.000000) scale(0.100000,-0.100000)"
fill="#000000" stroke="none">
<path d="M1305 2774 c-293 -44 -531 -155 -719 -334 -192 -183 -272 -366 -285
-653 l-6 -139 -55 -19 c-65 -23 -93 -42 -134 -93 -26 -31 -31 -47 -34 -104 -3
-60 0 -72 26 -112 35 -55 91 -95 157 -111 65 -17 69 -21 85 -71 52 -175 212
-382 388 -500 76 -52 234 -131 285 -144 25 -6 26 -8 14 -23 -25 -28 -37 -82
-37 -161 0 -147 50 -224 161 -244 74 -13 202 28 245 81 19 22 24 24 45 12 30
-15 127 -16 155 -1 18 9 25 8 40 -9 33 -36 100 -69 162 -80 72 -13 154 6 189
43 69 73 84 269 28 352 l-23 34 46 17 c62 23 185 89 247 133 72 51 210 188
254 252 51 74 95 162 115 232 14 49 21 59 44 64 167 35 268 168 221 291 -22
60 -122 138 -200 156 l-27 7 -4 162 c-4 133 -9 176 -28 233 -111 346 -417 604
-830 702 -89 21 -135 25 -300 28 -107 2 -208 1 -225 -1z m417 -114 c440 -75
770 -359 834 -720 18 -103 18 -587 0 -690 -81 -454 -610 -783 -1173 -730 -196
18 -377 76 -523 166 -169 104 -269 209 -350 368 -77 149 -82 187 -78 577 4
317 5 337 27 399 77 218 219 380 441 503 112 62 280 118 396 132 50 7 54 6
105 -35 98 -77 220 -123 364 -136 65 -6 75 -4 94 15 26 26 26 33 4 60 -14 17
-36 24 -101 32 -82 10 -178 39 -217 65 -18 13 -16 14 22 14 22 0 92 -9 155
-20z m-1419 -1251 c3 -103 3 -106 -17 -101 -40 10 -76 43 -87 82 -10 32 -9 44
7 76 20 40 87 86 91 62 1 -7 4 -61 6 -119z m2466 89 c58 -57 32 -158 -49 -187
l-30 -10 0 118 0 118 24 -4 c13 -3 38 -19 55 -35z m-858 -1095 c12 -33 11
-153 -2 -191 -11 -33 -37 -47 -82 -43 -67 4 -125 61 -134 129 -9 73 30 121
111 132 65 9 96 1 107 -27z m-624 10 c39 -18 53 -46 53 -105 0 -81 -71 -143
-156 -136 -32 2 -42 8 -54 33 -19 39 -19 187 -1 209 18 22 112 21 158 -1z"/>
<path d="M1020 1813 c-8 -3 -27 -17 -42 -31 -65 -60 -4 -176 82 -157 67 15 93
107 45 159 -13 14 -28 26 -34 26 -5 0 -15 2 -23 4 -7 3 -20 2 -28 -1z"/>
<path d="M1935 1811 c-32 -13 -55 -46 -62 -84 -5 -32 -1 -41 30 -72 44 -44 78
-46 118 -6 38 39 40 96 4 135 -13 14 -28 26 -34 26 -5 0 -15 2 -23 4 -7 3 -22
1 -33 -3z"/>
<path d="M1200 1250 c-109 -37 -160 -50 -204 -50 l-59 0 24 -26 c59 -63 158
-89 320 -82 117 5 158 16 205 60 19 17 22 17 34 3 35 -42 92 -59 210 -63 162
-6 261 19 319 82 l24 26 -57 0 c-43 0 -96 13 -206 50 -166 56 -239 64 -281 31
-24 -19 -25 -19 -48 0 -41 34 -117 25 -281 -31z"/>
</g>
</svg>
